<?xml version="1.0" encoding="utf-8"?><svg viewBox="0 0 200 200" xmlns="http://www.w3.org/2000/svg" xmlns:xlink="http://www.w3.org/1999/xlink"><style>:root>svg{display:none}:root>svg:target{display:block}</style><svg version="1.0" viewBox="-35.422 -7.96 31.92 31.92" id="icon-editor-contrast" xmlns="http://www.w3.org/2000/svg"><path fill="#231F20" d="M-19.462-3.96c6.595 0 11.96 5.365 11.96 11.96s-5.365 11.96-11.96 11.96-11.96-5.365-11.96-11.96 5.365-11.96 11.96-11.96m0-4c-8.814 0-15.96 7.145-15.96 15.96 0 8.813 7.146 15.96 15.96 15.96S-3.502 16.813-3.502 8c0-8.815-7.146-15.96-15.96-15.96z"/><path fill="#231F20" d="M-19.462 16.331a8.519 8.519 0 008.52-8.52 8.518 8.518 0 00-8.52-8.519"/></svg><svg version="1.0" viewBox="0 0 48 48" id="icon-editor-crop" xmlns="http://www.w3.org/2000/svg"><path fill="none" d="M0 0h48v48H0V0z"/><path d="M34 30h4V14c0-2.21-1.79-4-4-4H18v4h16v16zm-20 4V2h-4v8H2v4h8v20c0 2.21 1.79 4 4 4h20v8h4v-8h8v-4H14z"/></svg><svg version="1.0" viewBox="22.5 69.048 253 253" id="icon-editor-diagram-fill" xmlns="http://www.w3.org/2000/svg"><path fill="#D22856" d="M149 69.048c-69.864 0-126.5 56.636-126.5 126.5s56.636 126.5 126.5 126.5 126.5-56.636 126.5-126.5c0-69.863-56.636-126.5-126.5-126.5zm0 237.216c-60.844 0-110.167-49.323-110.167-110.167S88.156 85.93 149 85.93c60.843 0 110.167 49.323 110.167 110.167S209.843 306.264 149 306.264z"/></svg><svg version="1.0" viewBox="0 0 48 48" id="icon-editor-fill" xmlns="http://www.w3.org/2000/svg"><path fill="none" d="M0 0h48v48H0V0z"/><path d="M33.12 17.88L15.24 0l-2.83 2.83 4.76 4.76L6.88 17.88a3 3 0 000 4.24l11 11c.58.59 1.35.88 2.12.88s1.54-.29 2.12-.88l11-11a3 3 0 000-4.24zM10.41 20L20 10.42 29.59 20H10.41zM38 23s-4 4.33-4 7c0 2.21 1.79 4 4 4s4-1.79 4-4c0-2.67-4-7-4-7zM0 40h48v3H0z"/></svg><svg version="1.0" viewBox="0 0 8.673 18.944" id="icon-facebook" xmlns="http://www.w3.org/2000/svg"><path d="M6.275 3.357h2.398V0H5.795C2.656.181 1.54 2.387 1.948 6.115H0v3.517h1.958v9.312h3.837V9.632h2.857V6.115H5.786c-.021-1.045-.036-2.406.489-2.758z"/></svg><svg version="1.0" fill="#D22856" viewBox="521.939 473.064 12.545 11.99" id="icon-heart" xmlns="http://www.w3.org/2000/svg"><path d="M528.174 485.055a.737.737 0 01-.552-.249c-3.798-4.324-4.644-5.298-4.858-5.572h-.004a3.866 3.866 0 01-.821-2.373 3.803 3.803 0 013.799-3.799c.934 0 1.804.32 2.484.898a3.847 3.847 0 012.463-.898 3.803 3.803 0 013.799 3.799c0 .909-.318 1.754-.896 2.381l-4.86 5.561a.735.735 0 01-.554.252zm-4.245-6.706c.208.255 2.471 2.839 4.243 4.858l4.323-4.944c.34-.369.52-.86.52-1.399a2.333 2.333 0 00-2.33-2.331c-.729 0-1.421.344-1.9.943a.76.76 0 01-.585.275.727.727 0 01-.575-.294 2.333 2.333 0 00-1.887-.925 2.333 2.333 0 00-2.33 2.331c0 .678.275 1.171.507 1.467l.014.019z"/></svg><svg viewBox="0 0 17.988 13.966" id="icon-mail" xmlns="http://www.w3.org/2000/svg"><path fill="#FFF" d="M14.914 1.814C16.111.816 15.816 0 14.257 0H3.731c-1.56 0-1.854.816-.657 1.814l3.742 3.118c1.197.998 3.158.998 4.355 0l3.743-3.118z"/><path fill="#FFF" d="M11.913 7.044A209.809 209.809 0 019.695 8.88l-.02.013a1.048 1.048 0 01-.235.136c-.033.015-.066.034-.1.048a1.18 1.18 0 01-.335.059l-.01.001h-.002l-.01-.001a1.216 1.216 0 01-.335-.059c-.034-.014-.068-.033-.1-.048a1.07 1.07 0 01-.235-.136l-.02-.013c-.022-.012-1.02-.838-2.218-1.836L2.178 3.796C.979 2.798 0 3.257 0 4.816v6.315a2.842 2.842 0 002.835 2.835h12.318a2.842 2.842 0 002.835-2.835V4.816c0-1.559-.979-2.018-2.178-1.02l-3.897 3.248z"/></svg></svg>